<?xml version="1.0" encoding="utf-8"?>
<!-- Generator: Adobe Illustrator 24.0.2, SVG Export Plug-In . SVG Version: 6.00 Build 0)  -->
<svg version="1.1" id="Layer_1" xmlns="http://www.w3.org/2000/svg" xmlns:xlink="http://www.w3.org/1999/xlink" x="0px" y="0px"
	 viewBox="0 0 59.6 59.6" style="enable-background:new 0 0 59.6 59.6;" xml:space="preserve">
<style type="text/css">
	.st0{fill:#020202;}
</style>
<g>
	<g>
		<g>
			<path class="st0" d="M24,8.6c1.6-2.3,3.3-4.7,5.7-6.2c2.4,1.4,4.1,3.8,5.7,6c3.7,5.6,6,12.3,5.5,19.1c1.2,1,2.4,2,3.6,3
				c1.7,1.6,2.5,4,2.1,6.2c-0.6,2.8-1.1,5.7-1.7,8.5c-0.3,1.5-2.3,2.1-3.5,1.2c-1.9-1.6-3.8-3.3-5.7-4.9c-1.5,1.4-3.4,2.3-5.4,2.5
				c-2.3,0.2-4.7-0.8-6.4-2.4c-1.4,1.1-2.7,2.3-4,3.5c-0.7,0.5-1.2,1.2-2,1.6c-1.2,0.5-2.7-0.3-3-1.5c-0.6-2.8-1.3-5.5-1.9-8.3
				c-0.5-2.3,0.4-4.9,2.2-6.5c1-0.9,2.1-1.7,3.2-2.6c0.3-0.2,0.1-0.5,0.2-0.8C18.3,20.5,20.5,14,24,8.6z M25.9,17.2
				c-1.4,1.8-1.2,4.6,0.4,6.2c1.7,1.9,5,2,6.8,0.1c1.4-1.3,1.9-3.4,1.2-5.1c-0.6-1.7-2.2-2.9-4-3.1C28.6,15.1,26.9,15.9,25.9,17.2z"
				/>
		</g>
		<path class="st0" d="M23.4,47.5c0-0.8,1-1.4,1.7-0.9c2.9,1.5,6.5,1.5,9.4,0c0.7-0.4,1.7,0.1,1.7,0.9c0,1.7,0,3.5,0,5.2
			c0,0.8-1.1,1.4-1.8,0.9c-0.5-0.4-1-0.9-1.4-1.4c-0.8,1.5-1.5,3-2.3,4.5c-0.4,0.7-1.5,0.7-1.9,0c-0.8-1.5-1.5-3-2.3-4.5
			c-0.5,0.5-0.9,1-1.4,1.4c-0.7,0.5-1.8,0-1.8-0.9C23.3,51,23.3,49.2,23.4,47.5z"/>
	</g>
	<circle class="st0" cx="29.7" cy="20.1" r="2.3"/>
</g>
</svg>
