<?xml version="1.0" encoding="utf-8"?>
<!-- Generator: Adobe Illustrator 24.0.2, SVG Export Plug-In . SVG Version: 6.00 Build 0)  -->
<svg version="1.1" id="레이어_1" xmlns="http://www.w3.org/2000/svg" xmlns:xlink="http://www.w3.org/1999/xlink" x="0px"
	 y="0px" viewBox="0 0 124 42.6" style="enable-background:new 0 0 124 42.6;" xml:space="preserve">
<style type="text/css">
	.st0{fill:#1076DE;}
	.st1{enable-background:new    ;}
</style>
<g>
	<g>
		<path class="st0" d="M31.6,15.8l3.2-0.7c0,0,1.6,2-0.5,3C32.1,18.9,31.2,15.9,31.6,15.8z"/>
	</g>
	<g>
		<circle class="st0" cx="23.1" cy="11.4" r="1.6"/>
	</g>
	<g>
		<circle class="st0" cx="36.9" cy="12.8" r="1.6"/>
	</g>
	<g>
		<path class="st0" d="M16,21.1c0,0,0.4,2.5,1.2,2.9l5.4-2.2l5.4,0.5c0,0-10.2,3.5-11.3,4.7c0,0-3.6-4.2-3.5-5.7
			C13.1,21.1,16,21.1,16,21.1z"/>
	</g>
	<g>
		<path class="st0" d="M36.2,37c-1.9,0-3.5-0.7-4.9-2.2c-1.5-1.9-1.9-4.1-1.6-5.1c0-0.1,0.1-0.2,0.1-0.5c0.2-1.9,1.1-6.2,7.1-6.7H37
			h0.1c0,0,3.5,0.2,3.4,4.7c-0.1,4.1-2.2,5.5-2.4,5.6l-0.4,0.1L31.2,32c0.2,0.7,0.6,1.5,1.1,2.1c1,1.2,2.4,1.9,4,1.9
			c2.7-0.1,4.7-1.5,5.9-4.1c1-2.1,1.1-4.1,1.1-4.2l0,0l1.6-22.5c-1.9,0-7.1,0-8.9-0.2c-1.7-0.3-16-0.8-19.1-0.8L16.5,21h-1.1
			l0.5-18.2h0.6c0.7,0,17.7,0.6,19.8,0.7c2,0.2,9.2,0.1,9.4,0.1h0.6l-1.7,23.7c0,0.2-0.1,2.4-1.1,4.6C41.8,35.1,39.4,36.7,36.2,37
			C36.3,37,36.2,37,36.2,37z M30.8,30.6l6.6,0.9c0.4-0.4,1.6-1.6,1.6-4.5c0-3-1.9-3.5-2.2-3.5c-5,0.5-5.6,4-5.9,5.7
			c0,0.2-0.1,0.4-0.1,0.5C30.8,30,30.8,30.3,30.8,30.6z"/>
	</g>
	<g>
		<path class="st0" d="M35.3,37c-23.4-1.5-27.2-3.9-27.7-4.2c-0.2-0.2-3-2.5-2.9-5.9c0.1-3.1,1.6-4.7,3-5.5s2.7-0.9,2.7-0.9
			c0.2,0,5.5-0.2,26.6,1.7l-0.1,1.1c-21-2-26.2-1.7-26.3-1.7c-0.2,0-4.4,0.2-4.6,5.2l0,0c-0.2,3,2.4,4.9,2.4,4.9h0.1
			c0.2,0.2,4,2.5,26.9,3.9L35.3,37z"/>
	</g>
	<g>
		<path class="st0" d="M11,33.4c-3,3.2,2.5,4.9,6.9,5.7c4.4,0.9,9.9,1.5,19.6,0c10-1.5,4.9-6.5,4.9-6.5s-1.6,3.9-6,3.9
			C22.8,36,11,33.4,11,33.4z"/>
	</g>
</g>
<g class="st1">
	<g>
		<path class="st0" d="M58.7,29.8V12.9h7.2c1.8,0,3.1,0.1,3.9,0.5c0.7,0.4,1.5,0.8,1.9,1.6c0.5,0.7,0.7,1.8,0.7,2.7
			c0,1.2-0.4,2.3-1.1,3.1c-0.7,0.8-1.8,1.3-3.4,1.6c0.7,0.5,1.3,0.8,1.8,1.5c0.5,0.5,1.1,1.5,1.9,2.8l2,3.2h-4l-2.4-3.6
			c-0.8-1.3-1.5-2.2-1.8-2.4c-0.3-0.3-0.5-0.5-0.9-0.7c-0.5,0-1.1-0.2-1.9-0.2H62v7h-3.2L58.7,29.8L58.7,29.8z M62.1,19.9h2.6
			c1.6,0,2.7-0.1,3-0.3c0.4-0.1,0.7-0.4,0.9-0.7c0.3-0.4,0.4-0.7,0.4-1.2s-0.1-0.9-0.5-1.3s-0.7-0.5-1.3-0.5c-0.3,0-1.1,0-2.6,0
			h-2.7L62.1,19.9L62.1,19.9z"/>
	</g>
	<g>
		<path class="st0" d="M77.1,17.5h1.8v-0.9c0-0.9,0.1-1.8,0.4-2.3s0.5-0.9,1.2-1.2c0.5-0.4,1.3-0.5,2.2-0.5c0.9,0,1.8,0.1,2.7,0.4
			l-0.5,2.3C84.4,15.2,84,15,83.4,15s-0.8,0.1-0.9,0.4c-0.3,0.3-0.4,0.5-0.4,1.2v0.8h2.4V20H82v9.7h-3.2V20H77L77.1,17.5L77.1,17.5z
			"/>
	</g>
	<g>
		<path class="st0" d="M99.5,29.8h-3V28c-0.5,0.7-1.1,1.2-1.8,1.6c-0.7,0.4-1.3,0.5-2,0.5c-1.5,0-2.7-0.5-3.6-1.8
			c-0.9-1.2-1.5-2.7-1.5-4.7s0.5-3.6,1.5-4.7c0.9-1.1,2.2-1.6,3.8-1.6c1.3,0,2.6,0.5,3.5,1.8V13h3.2L99.5,29.8L99.5,29.8L99.5,29.8z
			 M90.9,23.3c0,1.3,0.1,2.3,0.5,2.8c0.5,0.8,1.2,1.2,2.2,1.2c0.7,0,1.3-0.4,1.9-0.9c0.5-0.5,0.7-1.6,0.7-2.8c0-1.5-0.3-2.4-0.7-3
			c-0.5-0.5-1.2-0.9-1.9-0.9s-1.5,0.4-1.9,0.9C91.3,21.3,90.9,22.1,90.9,23.3z"/>
	</g>
	<g>
		<path class="st0" d="M115.9,29.8h-3V28c-0.5,0.7-1.1,1.2-1.8,1.6c-0.7,0.4-1.3,0.5-2,0.5c-1.5,0-2.7-0.5-3.6-1.8
			c-0.9-1.1-1.5-2.7-1.5-4.7s0.5-3.6,1.5-4.7c0.9-1.1,2.2-1.6,3.8-1.6c1.3,0,2.6,0.5,3.5,1.8V13h3.2L115.9,29.8L115.9,29.8
			L115.9,29.8z M107.2,23.3c0,1.3,0.1,2.3,0.5,2.8c0.5,0.8,1.2,1.2,2.2,1.2c0.7,0,1.3-0.4,1.9-0.9c0.5-0.5,0.7-1.6,0.7-2.8
			c0-1.5-0.3-2.4-0.7-3c-0.4-0.5-1.2-0.9-1.9-0.9s-1.5,0.4-1.9,0.9C107.5,21.3,107.2,22.1,107.2,23.3z"/>
	</g>
</g>
</svg>
