<?xml version="1.0" encoding="utf-8"?>
<!-- Generator: Adobe Illustrator 24.0.2, SVG Export Plug-In . SVG Version: 6.00 Build 0)  -->
<svg version="1.1" id="레이어_1" xmlns="http://www.w3.org/2000/svg" xmlns:xlink="http://www.w3.org/1999/xlink" x="0px"
	 y="0px" viewBox="0 0 124 47" style="enable-background:new 0 0 124 47;" xml:space="preserve">
<style type="text/css">
	.st0{fill:#1076DE;}
	.st1{enable-background:new    ;}
</style>
<g>
	<path class="st0" d="M37,17.8l3.3-0.7c0,0,1.7,2-0.5,3C37.6,21,36.6,17.9,37,17.8z"/>
	<circle class="st0" cx="28.4" cy="13.3" r="1.6"/>
	<circle class="st0" cx="42.5" cy="14.7" r="1.6"/>
	<path class="st0" d="M21.1,23.2c0,0,0.4,2.5,1.3,2.9l5.5-2.3l5.5,0.5c0,0-10.4,3.6-11.6,4.8c0,0-3.7-4.3-3.6-5.9
		C18.2,23.2,21.1,23.2,21.1,23.2z"/>
	<path class="st0" d="M41.8,39.3c-1.9,0-3.6-0.8-4.9-2.3c-1.5-1.9-1.9-4.2-1.7-5.2c0-0.1,0.1-0.3,0.1-0.5c0.3-1.9,1.1-6.3,7.2-6.9
		h0.1h0.1c0,0,3.5,0.3,3.4,4.8c-0.1,4.2-2.3,5.6-2.4,5.7L43.3,35l-6.7-0.9c0.2,0.7,0.6,1.5,1.2,2.1c1,1.3,2.4,1.9,4.1,1.9
		c2.8-0.1,4.8-1.5,6-4.2c1-2.1,1.1-4.2,1.1-4.3l0,0l1.7-22.9c-1.9,0-7.3,0-9-0.2c-1.8-0.2-16.4-0.7-19.5-0.8l-0.5,17.4h-1.2L21,4.6
		h0.6c0.7,0,18.1,0.6,20.2,0.8c2,0.2,9.4,0.1,9.5,0.1h0.6l-1.8,24.1c0,0.2-0.1,2.4-1.2,4.7C47.5,37.4,45,39.1,41.8,39.3
		C41.9,39.3,41.8,39.3,41.8,39.3z M36.3,32.9l6.7,0.9c0.4-0.4,1.6-1.6,1.7-4.6c0-3.1-1.9-3.5-2.3-3.6c-5.1,0.5-5.7,4.1-6,5.9
		c0,0.2-0.1,0.4-0.1,0.5C36.3,32.2,36.3,32.5,36.3,32.9z"/>
	<path class="st0" d="M40.8,39.3C17,37.8,13.1,35.4,12.7,35c-0.3-0.2-3.1-2.5-2.9-6c0.1-3.2,1.7-4.8,3-5.6c1.4-0.8,2.8-0.9,2.8-0.9
		c0.2,0,5.6-0.2,27,1.8l-0.1,1.2c-21.3-2-26.7-1.8-26.8-1.8c-0.2,0-4.5,0.2-4.7,5.3l0,0c-0.2,3.1,2.4,5,2.4,5h0.1
		c0.3,0.2,4.1,2.6,27.5,4L40.8,39.3z"/>
	<path class="st0" d="M16.1,35.7c-3.1,3.3,2.5,5,7,5.8c4.5,0.9,10,1.5,20,0c10.1-1.5,5-6.6,5-6.6s-1.6,4-6.1,3.9
		C28.1,38.4,16.1,35.7,16.1,35.7z"/>
</g>
<g class="st1">
	<path class="st0" d="M63.4,30.5V16.5h5.9c1.5,0,2.6,0.1,3.2,0.4s1.2,0.7,1.6,1.3c0.4,0.6,0.6,1.4,0.6,2.2c0,1-0.3,1.9-0.9,2.6
		s-1.5,1.1-2.8,1.3c0.6,0.4,1.1,0.7,1.5,1.2s0.9,1.2,1.6,2.3l1.7,2.7h-3.4l-2-3c-0.7-1.1-1.2-1.8-1.5-2s-0.5-0.5-0.8-0.6
		c-0.3-0.1-0.8-0.2-1.4-0.2h-0.6v5.8H63.4z M66.2,22.4h2.1c1.3,0,2.2-0.1,2.5-0.2c0.3-0.1,0.6-0.3,0.8-0.6c0.2-0.3,0.3-0.6,0.3-1
		c0-0.5-0.1-0.8-0.4-1.1c-0.3-0.3-0.6-0.5-1.1-0.5c-0.2,0-0.9,0-2.1,0h-2.2V22.4z"/>
	<path class="st0" d="M77.8,20.4h1.5v-0.8c0-0.8,0.1-1.5,0.3-1.9c0.2-0.4,0.5-0.8,1-1c0.5-0.3,1.1-0.4,1.8-0.4
		c0.8,0,1.5,0.1,2.2,0.3l-0.4,1.9c-0.4-0.1-0.8-0.2-1.2-0.2c-0.4,0-0.7,0.1-0.8,0.3c-0.2,0.2-0.3,0.5-0.3,1v0.7h2v2.1h-2v8h-2.7v-8
		h-1.5V20.4z"/>
	<path class="st0" d="M96.4,30.5h-2.5V29c-0.4,0.6-0.9,1-1.5,1.3s-1.1,0.4-1.7,0.4c-1.2,0-2.2-0.5-3-1.4c-0.8-0.9-1.2-2.2-1.2-3.9
		c0-1.7,0.4-3,1.2-3.9c0.8-0.9,1.8-1.3,3.1-1.3c1.1,0,2.1,0.5,2.9,1.4v-5h2.7V30.5z M89.2,25.2c0,1.1,0.1,1.9,0.4,2.3
		c0.4,0.7,1,1,1.8,1c0.6,0,1.1-0.3,1.6-0.8c0.4-0.5,0.6-1.3,0.6-2.3c0-1.2-0.2-2-0.6-2.5c-0.4-0.5-1-0.8-1.6-0.8
		c-0.6,0-1.2,0.3-1.6,0.8C89.5,23.5,89.2,24.2,89.2,25.2z"/>
	<path class="st0" d="M109.9,30.5h-2.5V29c-0.4,0.6-0.9,1-1.5,1.3c-0.6,0.3-1.1,0.4-1.7,0.4c-1.2,0-2.2-0.5-3-1.4
		c-0.8-0.9-1.2-2.2-1.2-3.9c0-1.7,0.4-3,1.2-3.9c0.8-0.9,1.8-1.3,3.1-1.3c1.1,0,2.1,0.5,2.9,1.4v-5h2.7V30.5z M102.7,25.2
		c0,1.1,0.1,1.9,0.4,2.3c0.4,0.7,1,1,1.8,1c0.6,0,1.1-0.3,1.6-0.8c0.4-0.5,0.6-1.3,0.6-2.3c0-1.2-0.2-2-0.6-2.5s-1-0.8-1.6-0.8
		c-0.6,0-1.2,0.3-1.6,0.8C103,23.5,102.7,24.2,102.7,25.2z"/>
</g>
</svg>
